<?xml version="1.0" standalone="no"?>
<!DOCTYPE svg PUBLIC "-//W3C//DTD SVG 20010904//EN"
 "http://www.w3.org/TR/2001/REC-SVG-20010904/DTD/svg10.dtd">
<svg version="1.0" xmlns="http://www.w3.org/2000/svg"
 width="526.000000pt" height="457.000000pt" viewBox="0 0 526.000000 457.000000"
 preserveAspectRatio="xMidYMid meet">

<g transform="translate(0.000000,457.000000) scale(0.100000,-0.100000)"
fill="#000000" stroke="none">
<path d="M1640 4282 c-19 -2 -39 -8 -44 -13 -6 -5 -20 -9 -33 -9 -13 0 -23 -4
-23 -10 0 -5 -7 -10 -15 -10 -26 0 -165 -84 -165 -100 0 -6 -6 -10 -13 -10
-29 0 -97 -107 -97 -151 0 -10 -4 -21 -10 -24 -13 -8 -13 -192 0 -200 6 -3 10
-15 10 -26 0 -10 5 -19 10 -19 6 0 10 -7 10 -17 0 -19 97 -113 117 -113 7 0
13 -3 13 -8 0 -8 59 -36 130 -62 l45 -16 -1 -70 c-3 -124 -15 -194 -35 -207
-11 -7 -19 -23 -19 -39 0 -17 -8 -33 -20 -40 -11 -7 -20 -20 -20 -30 0 -9 -13
-28 -30 -41 -16 -14 -30 -30 -30 -36 0 -5 -13 -22 -30 -38 -16 -15 -30 -33
-30 -38 0 -6 -8 -18 -17 -26 -45 -40 -113 -122 -113 -135 0 -8 -6 -14 -13 -14
-7 0 -24 -15 -37 -32 -13 -18 -29 -37 -37 -41 -7 -4 -13 -14 -13 -21 0 -7 -13
-25 -30 -41 -16 -16 -30 -34 -30 -39 0 -6 -14 -24 -30 -40 l-31 -28 28 -28
c26 -26 29 -27 46 -13 9 9 17 24 17 35 0 10 5 18 10 18 6 0 14 8 17 18 9 24
42 71 79 112 17 19 40 50 50 69 11 18 40 57 66 85 26 28 48 54 48 58 0 4 20
29 45 55 25 25 45 53 45 60 0 8 7 16 15 20 9 3 26 21 39 39 43 64 47 35 43
-278 -2 -171 -8 -301 -15 -328 -7 -25 -15 -61 -18 -80 -4 -19 -12 -41 -18 -49
-6 -8 -9 -25 -8 -38 2 -14 -4 -31 -15 -41 -26 -25 -43 -58 -43 -86 0 -14 -5
-28 -10 -31 -5 -3 -10 -19 -10 -35 0 -16 -5 -32 -10 -35 -6 -3 -10 -20 -10
-36 0 -16 -9 -39 -20 -51 -11 -12 -20 -29 -20 -39 0 -9 -8 -34 -19 -56 -19
-40 -51 -134 -58 -168 -13 -73 -16 -86 -24 -91 -5 -3 -9 -16 -9 -29 0 -13 -4
-27 -10 -30 -5 -3 -10 -22 -10 -41 0 -19 -4 -34 -10 -34 -5 0 -10 -9 -10 -20
0 -11 -4 -20 -10 -20 -18 0 -12 -78 7 -89 10 -5 14 -13 10 -18 -5 -4 -104 -9
-220 -11 -117 -2 -216 -8 -222 -13 -5 -5 -19 -9 -31 -9 -27 0 -34 -43 -34
-221 0 -74 -4 -130 -10 -134 -6 -3 -10 -34 -10 -69 0 -34 -4 -66 -8 -71 -23
-26 -32 -160 -32 -479 l0 -336 45 0 45 0 1 273 c0 149 4 304 10 342 5 39 12
122 15 185 3 63 10 119 15 125 5 5 9 71 9 147 l0 138 33 0 c18 0 37 4 42 9 6
5 35 12 65 15 113 11 155 18 165 27 5 5 39 9 76 9 57 0 67 2 65 18 -1 11 4 15
14 12 8 -2 35 -3 60 -2 25 1 136 5 246 8 175 4 204 7 218 23 13 14 16 54 18
247 l3 229 120 3 c66 1 129 6 140 12 23 11 110 17 338 26 86 3 157 10 157 15
0 5 24 9 54 9 53 0 91 20 66 35 -6 4 -10 109 -10 311 0 294 1 304 19 304 11 0
23 4 26 10 3 6 21 10 39 10 17 0 36 4 41 9 43 40 655 51 1510 26 275 -8 566
-15 648 -15 l147 0 0 35 0 35 -72 0 c-112 0 -569 11 -803 19 -427 15 -1129 12
-1320 -4 -269 -23 -276 -24 -307 -57 -14 -15 -22 -30 -18 -33 5 -3 9 -53 9
-112 1 -58 5 -111 10 -117 6 -7 12 -75 14 -151 2 -77 7 -150 11 -162 8 -21 5
-23 -27 -23 -20 0 -39 -5 -42 -10 -4 -6 -34 -10 -68 -9 -34 0 -75 -4 -90 -10
-16 -6 -51 -11 -78 -11 -27 0 -49 -4 -49 -10 0 -5 -22 -10 -49 -10 -28 0 -53
-5 -56 -10 -3 -6 -50 -10 -105 -10 -55 0 -102 -4 -105 -10 -3 -5 -46 -10 -96
-10 -53 0 -89 -4 -89 -10 0 -5 -12 -10 -26 -10 -24 0 -26 -2 -19 -32 10 -42 9
-128 0 -249 -5 -68 -4 -98 4 -103 6 -4 11 -27 11 -52 l0 -44 -63 0 c-35 0 -67
-4 -72 -9 -9 -9 -151 -20 -295 -24 -62 -2 -65 -1 -68 22 -4 23 35 112 51 119
4 2 7 12 7 23 0 10 5 19 10 19 6 0 10 11 10 24 0 14 4 28 10 31 5 3 10 16 10
28 0 12 9 33 20 47 11 14 20 30 20 36 0 16 24 64 33 64 4 0 7 13 7 28 0 15 5
33 12 40 7 7 8 12 4 12 -5 0 -2 7 5 16 7 9 14 22 15 30 1 7 9 28 18 45 9 18
16 38 16 46 0 7 5 13 10 13 6 0 10 13 10 29 0 16 3 31 8 33 4 2 18 26 31 53
41 87 49 100 70 111 11 6 29 18 39 27 10 10 24 17 31 17 7 0 38 17 69 38 31
21 71 44 87 51 17 7 38 17 47 22 10 5 29 9 43 9 14 0 25 5 25 10 0 6 9 10 20
10 11 0 29 5 40 10 11 6 29 15 40 20 11 5 30 10 42 10 13 0 37 9 55 19 17 11
40 17 52 14 12 -3 27 -1 34 5 11 9 73 17 105 13 6 0 12 -12 12 -25 0 -14 5
-28 10 -31 6 -3 10 -44 10 -90 0 -46 4 -86 8 -89 5 -3 14 -63 21 -135 14 -132
20 -147 59 -134 15 6 17 109 2 118 -6 4 -10 83 -10 205 0 122 -4 201 -10 205
-5 3 -10 13 -10 22 0 9 -8 22 -17 29 -21 16 -93 19 -93 4 0 -5 -13 -10 -29
-10 -17 0 -33 -4 -36 -10 -3 -5 -17 -10 -30 -10 -13 0 -27 -4 -30 -10 -3 -5
-17 -10 -30 -10 -13 0 -27 -4 -30 -10 -3 -5 -17 -10 -30 -10 -13 0 -27 -4 -30
-10 -3 -5 -17 -10 -30 -10 -13 0 -27 -4 -30 -10 -3 -5 -19 -10 -36 -10 -28 0
-37 -3 -86 -28 -13 -7 -32 -12 -43 -12 -11 0 -28 -4 -38 -9 -84 -42 -109 -51
-148 -51 l-45 0 5 308 c3 169 8 351 11 405 6 87 8 97 26 97 10 0 19 4 19 10 0
5 11 12 25 16 16 4 25 13 25 25 0 10 5 19 10 19 6 0 38 17 73 38 34 20 75 43
90 51 15 8 27 18 27 23 0 4 7 8 16 8 9 0 28 8 42 19 15 10 37 22 50 25 12 4
22 12 22 17 0 5 6 9 13 9 7 0 23 9 35 20 12 11 27 20 34 20 7 0 19 9 26 20 7
11 18 20 26 20 8 0 24 11 37 25 13 14 40 33 59 42 48 24 112 67 135 93 15 17
16 23 6 29 -19 12 -44 3 -80 -30 -18 -16 -38 -29 -46 -29 -7 0 -16 -7 -19 -16
-3 -8 -11 -12 -16 -9 -6 4 -19 -3 -29 -14 -10 -12 -23 -21 -28 -21 -6 0 -16
-7 -23 -15 -7 -8 -41 -29 -75 -45 -34 -16 -68 -37 -75 -45 -7 -8 -18 -15 -25
-15 -7 0 -18 -7 -25 -15 -7 -8 -21 -15 -31 -15 -11 0 -19 -4 -19 -10 0 -5 -7
-10 -15 -10 -8 0 -15 -4 -15 -10 0 -5 -7 -10 -15 -10 -8 0 -15 -4 -15 -10 0
-5 -9 -10 -20 -10 -11 0 -20 -4 -20 -10 0 -5 -6 -10 -12 -10 -7 0 -24 -9 -38
-20 -14 -11 -33 -20 -42 -20 -10 0 -18 -4 -18 -10 0 -5 -9 -10 -20 -10 -11 0
-20 -4 -20 -10 0 -13 -37 -13 -45 0 -4 6 -2 17 4 23 5 7 11 51 13 97 l3 85 30
3 c34 3 107 23 115 32 3 3 17 13 33 23 15 10 27 22 27 28 0 11 15 31 43 57 9
9 17 24 17 34 0 10 5 18 10 18 6 0 10 13 10 29 0 17 5 33 10 36 6 3 10 39 10
79 0 44 5 77 13 85 10 11 10 14 0 18 -8 3 -13 23 -13 53 0 27 -4 52 -10 55 -5
3 -10 15 -10 26 0 10 -4 19 -10 19 -5 0 -10 6 -10 13 0 8 -9 22 -20 32 -11 10
-20 24 -20 32 0 7 -9 21 -20 30 -11 10 -20 22 -20 28 0 12 -47 35 -71 35 -10
0 -19 5 -21 11 -4 12 -57 17 -118 11z m125 -62 c49 -27 135 -149 135 -191 0
-10 5 -21 10 -24 6 -3 10 -17 10 -31 0 -13 5 -24 10 -24 14 0 13 -165 -2 -193
-6 -12 -14 -28 -18 -36 -3 -8 -13 -18 -21 -21 -8 -4 -24 -12 -36 -18 -28 -15
-100 -16 -108 -2 -3 6 -14 10 -24 10 -19 0 -72 53 -83 82 -4 9 -15 21 -25 27
-15 7 -22 5 -31 -10 -7 -11 -8 -19 -2 -19 5 0 10 -5 10 -12 0 -11 14 -28 52
-65 23 -22 84 -45 138 -50 57 -6 69 -17 45 -43 -37 -41 -73 -50 -190 -50 -91
0 -119 4 -153 20 -22 11 -48 20 -57 20 -8 0 -15 4 -15 9 0 5 -15 16 -33 24
-33 16 -71 54 -96 97 -9 16 -13 57 -12 137 2 99 5 118 21 136 11 11 20 26 20
31 0 13 91 104 123 122 60 35 154 74 179 75 13 0 31 3 40 7 33 13 82 9 113 -8z"/>
<path d="M1750 4055 c0 -32 2 -35 30 -35 28 0 30 3 30 35 0 32 -2 35 -30 35
-28 0 -30 -3 -30 -35z"/>
</g>
</svg>
